<svg id="Capa_1" data-name="Capa 1" xmlns="http://www.w3.org/2000/svg" xmlns:xlink="http://www.w3.org/1999/xlink" viewBox="0 0 438.49 315"><defs><style>.cls-1,.cls-2,.cls-3{fill-rule:evenodd;}.cls-1{fill:url(#Degradado_sin_nombre_4);}.cls-2{fill:url(#Degradado_sin_nombre_104);}.cls-3{fill:url(#Degradado_sin_nombre_3);}.cls-4{fill:#249658;}</style><linearGradient id="Degradado_sin_nombre_4" x1="2012.61" y1="3452.28" x2="2125.07" y2="3564.74" gradientUnits="userSpaceOnUse"><stop offset="0" stop-color="#193093"/><stop offset="0.44" stop-color="#0f6397"/><stop offset="1" stop-color="#00a99d"/></linearGradient><linearGradient id="Degradado_sin_nombre_104" x1="2134.29" y1="3476.45" x2="2293.32" y2="3476.45" gradientUnits="userSpaceOnUse"><stop offset="0.16" stop-color="#193093"/><stop offset="0.53" stop-color="#0f6397"/><stop offset="1" stop-color="#00a99d"/></linearGradient><linearGradient id="Degradado_sin_nombre_3" x1="1952.06" y1="3815.97" x2="2064.5" y2="3703.53" gradientTransform="translate(-287.8 197.54) rotate(-10.09)" xlink:href="#Degradado_sin_nombre_4"/></defs><title>engranes</title><path class="cls-1" d="M2148.32,3518.08v-19.16l-18.16-5.7A62.2,62.2,0,0,0,2123,3476l8.84-16.92-13.55-13.55-17,8.83a62.64,62.64,0,0,0-17.17-7.09l-5.76-18.26h-19.2l-5.75,18.26a63.16,63.16,0,0,0-17.17,7.09l-16.82-8.83-13.6,13.6,8.83,16.92a63.37,63.37,0,0,0-7.19,17.27l-18.16,5.7v19.16l18.06,5.7a63.41,63.41,0,0,0,7.19,17.42l-8.73,16.67,13.54,13.55,16.73-8.74a63.24,63.24,0,0,0,17.52,7.25l5.65,18h19.2l5.66-18a64,64,0,0,0,17.52-7.25l16.72,8.74,13.54-13.55-8.73-16.77a62.8,62.8,0,0,0,7.19-17.42l18-5.65Zm-79.49,32.5a42,42,0,1,1,41.93-42,42,42,0,0,1-41.93,42Z" transform="translate(-1989.29 -3354.71)"/><path class="cls-2" d="M2293.32,3486.08v-19.16l-18.16-5.7A62.2,62.2,0,0,0,2268,3444l8.84-16.92-13.55-13.55-17,8.83a62.64,62.64,0,0,0-17.17-7.09l-5.76-18.26h-19.2l-5.75,18.26a63.16,63.16,0,0,0-17.17,7.09l-16.82-8.83-13.6,13.6,8.83,16.92a63.37,63.37,0,0,0-7.19,17.27l-18.16,5.7v19.16l18.06,5.7a63.41,63.41,0,0,0,7.19,17.42l-8.73,16.67,13.54,13.55,16.73-8.74a63.24,63.24,0,0,0,17.52,7.25l5.65,18h19.2l5.66-18a64,64,0,0,0,17.52-7.25l16.72,8.74,13.54-13.55-8.73-16.77a62.8,62.8,0,0,0,7.19-17.42l18-5.65Zm-79.49,32.5a42,42,0,1,1,41.93-42,42,42,0,0,1-41.93,42Z" transform="translate(-1989.29 -3354.71)"/><path class="cls-3" d="M2427.78,3543l-3.36-18.85-18.88-2.44a62.09,62.09,0,0,0-10.11-15.74l5.74-18.21-15.71-11-15.17,11.66a62.56,62.56,0,0,0-18.14-4l-8.86-17-18.91,3.37-2.47,19a63.11,63.11,0,0,0-15.66,10l-18.11-5.75-11,15.76L2288.8,3525a63.12,63.12,0,0,0-4.06,18.26l-16.89,8.79,3.36,18.86,18.78,2.46a63.23,63.23,0,0,0,10.13,15.88l-5.67,18,15.7,11,14.94-11.52a63.61,63.61,0,0,0,18.51,4.06l8.72,16.7,18.9-3.37,2.43-18.67a64,64,0,0,0,16-10.2l18,5.67,11-15.71-11.53-15a63.67,63.67,0,0,0,4-18.41l16.7-8.72Zm-72.58,45.92a42,42,0,1,1,33.93-48.67,42,42,0,0,1-33.93,48.67Z" transform="translate(-1989.29 -3354.71)"/><path class="cls-4" d="M2292.06,3587.26a222.5,222.5,0,0,1-41.64,35.71c-1.66,1.11-3.32,2.21-5,3.3-36.24,23.49-69.55,37.19-101.85,41.87a150.29,150.29,0,0,1-21.41,1.57,119,119,0,0,1-29.3-3.47c-18.6-4.74-32.78-14-42.15-27.57a67.78,67.78,0,0,1-11.67-36.92c-.1-5.07.14-14.16,2.51-21.59a2.51,2.51,0,0,1,4-1.18h0a2.51,2.51,0,0,1,.83,2.72c-1.72,5.45-2.44,12.86-2.31,20a62.71,62.71,0,0,0,10.79,34.17c23.38,33.85,73.28,29.5,88,27.36,31.57-4.58,64.23-18,99.85-41.11,1.65-1.08,3.3-2.16,4.93-3.26a216.6,216.6,0,0,0,40.7-34.9,2.5,2.5,0,0,1,3.73,3.34Z" transform="translate(-1989.29 -3354.71)"/><path class="cls-4" d="M2118,3437.16a222.5,222.5,0,0,1,41.64-35.71c1.66-1.11,3.32-2.21,5-3.3,36.24-23.49,69.55-37.19,101.85-41.87a150.29,150.29,0,0,1,21.41-1.57,119,119,0,0,1,29.3,3.47c18.6,4.74,32.78,14,42.15,27.57a67.78,67.78,0,0,1,11.67,36.92c.09,5.07-.14,14.16-2.51,21.59a2.52,2.52,0,0,1-4,1.18h0a2.5,2.5,0,0,1-.82-2.72c1.72-5.45,2.43-12.86,2.31-20a62.71,62.71,0,0,0-10.79-34.17c-23.38-33.85-73.28-29.5-88-27.36-31.57,4.58-64.23,18-99.85,41.11-1.65,1.08-3.3,2.16-4.93,3.26a216.6,216.6,0,0,0-40.7,34.9,2.5,2.5,0,0,1-3.73-3.34Z" transform="translate(-1989.29 -3354.71)"/></svg>