<svg id="Capa_1" data-name="Capa 1" xmlns="http://www.w3.org/2000/svg" xmlns:xlink="http://www.w3.org/1999/xlink" viewBox="0 0 137 137"><defs><style>.cls-1{fill:#2d3235;}.cls-2{fill:url(#Degradado_sin_nombre_55);}</style><linearGradient id="Degradado_sin_nombre_55" x1="1970.5" y1="1024" x2="1970.5" y2="887" gradientUnits="userSpaceOnUse"><stop offset="0" stop-color="#f15a24"/><stop offset="0.19" stop-color="#f25522"/><stop offset="0.42" stop-color="#f4451c"/><stop offset="0.67" stop-color="#f82c12"/><stop offset="0.94" stop-color="#fe0904"/><stop offset="1" stop-color="red"/></linearGradient></defs><title>iconL</title><path class="cls-1" d="M1943.31,915.29v-.95h27a35.49,35.49,0,0,1,11.94,1.84,24.74,24.74,0,0,1,8.6,5,20.93,20.93,0,0,1,5.15,7.18,21.35,21.35,0,0,1,1.7,8.41,22.23,22.23,0,0,1-1.59,8.3,19.08,19.08,0,0,1-5,7.1,24.78,24.78,0,0,1-8.95,4.95,40.24,40.24,0,0,1-12.74,1.84q-2.29,0-8.83-.67v28.4q0,8.78,8.94,9v.89h-26.21v-.89a9.93,9.93,0,0,0,6.34-2.21c1.66-1.39,2.49-3.68,2.49-6.84V924.45a11.25,11.25,0,0,0-.89-4.75,6.53,6.53,0,0,0-2.1-2.71,8.79,8.79,0,0,0-2.68-1.2c-1-.26-1.67-.43-2-.5Zm17.27,2V956a47.55,47.55,0,0,0,8.49.78,22.25,22.25,0,0,0,13.56-4.1q5.56-4.11,5.56-15.24,0-9.16-4.89-15.06t-14.84-5.9A44.7,44.7,0,0,0,1960.58,917.24Z" transform="translate(-1902 -887)"/><path class="cls-2" d="M1902,887v65h14V901h51V887Zm123,72v51h-51v14h65V959Z" transform="translate(-1902 -887)"/></svg>