<svg id="Capa_1" data-name="Capa 1" xmlns="http://www.w3.org/2000/svg" xmlns:xlink="http://www.w3.org/1999/xlink" viewBox="0 0 311.11 137"><defs><style>.cls-1{fill:#fff;}.cls-2{fill:url(#Degradado_sin_nombre_55);}</style><linearGradient id="Degradado_sin_nombre_55" x1="1974.5" y1="1196" x2="1974.5" y2="1059" gradientUnits="userSpaceOnUse"><stop offset="0" stop-color="#f15a24"/><stop offset="0.19" stop-color="#f25522"/><stop offset="0.42" stop-color="#f4451c"/><stop offset="0.67" stop-color="#f82c12"/><stop offset="0.94" stop-color="#fe0904"/><stop offset="1" stop-color="red"/></linearGradient></defs><title>logo</title><path class="cls-1" d="M1947.31,1087.29v-1h27a35.49,35.49,0,0,1,11.94,1.84,24.74,24.74,0,0,1,8.6,5,20.93,20.93,0,0,1,5.15,7.18,21.35,21.35,0,0,1,1.7,8.41,22.23,22.23,0,0,1-1.59,8.3,19.08,19.08,0,0,1-5,7.1,24.78,24.78,0,0,1-8.95,5,40.24,40.24,0,0,1-12.74,1.84q-2.29,0-8.83-.67v28.4q0,8.77,8.94,9v.89h-26.21v-.89a9.93,9.93,0,0,0,6.34-2.21c1.66-1.39,2.49-3.68,2.49-6.84v-62.27a11.25,11.25,0,0,0-.89-4.75,6.53,6.53,0,0,0-2.1-2.71,8.79,8.79,0,0,0-2.68-1.2c-1-.26-1.67-.43-2-.5Zm17.27,2V1128a47.55,47.55,0,0,0,8.49.78,22.25,22.25,0,0,0,13.56-4.1q5.56-4.11,5.56-15.24,0-9.17-4.89-15.06t-14.84-5.9A44.7,44.7,0,0,0,1964.58,1089.24Z" transform="translate(-1906 -1059)"/><path class="cls-2" d="M1906,1059v65h14v-51h51v-14Zm123,72v51h-51v14h65v-65Z" transform="translate(-1906 -1059)"/><circle class="cls-1" cx="155.5" cy="129.47" r="7.53"/><path class="cls-1" d="M2113.61,1184.34c-1.76,6.28-6.27,11.66-15.49,11.66-10.13,0-16.9-6.91-16.9-18.73,0-10,5.9-19.06,17.38-19.06,10.45,0,14.4,6.91,15,11.78h-5.18c-1.07-4-3.8-7.56-9.94-7.56-7.59,0-11.9,6-11.9,14.66,0,8.42,4.09,14.7,11.58,14.7,5.29,0,8.43-2.55,10.25-7.45Z" transform="translate(-1906 -1059)"/><path class="cls-1" d="M2155.23,1177c0,10.2-6.16,19-17.85,19-10.76,0-17.36-8-17.36-18.87,0-10.47,6.33-18.92,17.77-18.92C2148.31,1158.21,2155.23,1165.71,2155.23,1177Zm-29.84.08c0,8.27,4.64,14.67,12.29,14.67s12.17-6,12.17-14.66c0-8.33-4.33-14.69-12.33-14.69S2125.39,1168.65,2125.39,1177.11Z" transform="translate(-1906 -1059)"/><path class="cls-1" d="M2164.79,1168.38c0-3.11,0-6.44-.08-9.31h5c.09,1.17.26,4.06.21,6a12.07,12.07,0,0,1,11.46-6.89c5.46,0,9.5,2.56,11,6.84,2-3.61,5.78-6.84,12.51-6.84,6.12,0,12.2,3.31,12.2,13.21v23.72H2212V1172c0-4.54-1.75-9.41-8.43-9.41-7,0-10.07,5.08-10.07,11.8v20.75h-5.06v-23c0-5-1.57-9.53-8.23-9.53-6.93,0-10.27,5.51-10.27,12.65v19.89h-5.14Z" transform="translate(-1906 -1059)"/></svg>