<svg id="Capa_1" data-name="Capa 1" xmlns="http://www.w3.org/2000/svg" xmlns:xlink="http://www.w3.org/1999/xlink" viewBox="0 0 1600 588.96"><defs><style>.cls-1{fill:#9ab7bd;}.cls-2{font-size:21px;fill:#4d4d4d;font-family:TimesNewRomanPS-ItalicMT, Times New Roman;font-style:italic;letter-spacing:0em;}.cls-3{letter-spacing:-0.01em;}.cls-4{letter-spacing:-0.03em;}.cls-5{fill:#fff;}.cls-6{fill:url(#Degradado_sin_nombre_55);}.cls-7,.cls-8{fill:#202020;}.cls-8{font-size:75px;font-family:BaskOldFace, Baskerville Old Face;letter-spacing:0.01em;}</style><linearGradient id="Degradado_sin_nombre_55" x1="800" y1="519.5" x2="800" y2="27.5" gradientUnits="userSpaceOnUse"><stop offset="0" stop-color="#f15a24"/><stop offset="0.19" stop-color="#f25522"/><stop offset="0.42" stop-color="#f4451c"/><stop offset="0.67" stop-color="#f82c12"/><stop offset="0.94" stop-color="#fe0904"/><stop offset="1" stop-color="red"/></linearGradient></defs><title>tittle</title><rect class="cls-1" y="231.5" width="1600" height="24"/><text class="cls-2" transform="translate(1136 571.62)">Por Omar<tspan class="cls-3" x="86.59" y="0"> </tspan><tspan x="91.57" y="0">Alejand</tspan><tspan class="cls-4" x="157.62" y="0">r</tspan><tspan x="165.12" y="0">o Pompa</tspan></text><rect class="cls-5" x="564" y="9.5" width="472" height="472"/><path class="cls-6" d="M1036,37.5v472H564V37.5h472m10-10H554v492h492V27.5Z" transform="translate(0 -27.5)"/><path class="cls-7" d="M572.19,186.93v-.63h17.94a23.76,23.76,0,0,1,7.93,1.22,16.39,16.39,0,0,1,5.72,3.35,13.86,13.86,0,0,1,3.41,4.77,14,14,0,0,1,1.14,5.59,14.87,14.87,0,0,1-1.06,5.51,12.74,12.74,0,0,1-3.33,4.72,16.53,16.53,0,0,1-5.94,3.29,27,27,0,0,1-8.47,1.22q-1.51,0-5.87-.44v18.86c0,3.89,2,5.9,6,6V241H572.19v-.59a6.6,6.6,0,0,0,4.21-1.47q1.67-1.38,1.66-4.55V193a7.36,7.36,0,0,0-.6-3.16,4.3,4.3,0,0,0-1.39-1.8,6,6,0,0,0-1.78-.8c-.66-.17-1.11-.28-1.36-.33Zm11.47,1.3V214a31.26,31.26,0,0,0,5.65.52,14.76,14.76,0,0,0,9-2.73q3.69-2.73,3.69-10.12a15.15,15.15,0,0,0-3.25-10q-3.24-3.91-9.86-3.91A29.69,29.69,0,0,0,583.66,188.23Z" transform="translate(0 -27.5)"/><path class="cls-7" d="M672.28,213.71a28.27,28.27,0,0,1-3.8,14.3,28.9,28.9,0,0,1-10.39,10.53,27.88,27.88,0,0,1-14.55,3.91,29,29,0,0,1-26.8-40.28,28,28,0,0,1,6.39-9.22,29.51,29.51,0,0,1,9.36-6.1,29.12,29.12,0,0,1,21.74-.09,29.08,29.08,0,0,1,9.27,6,28.24,28.24,0,0,1,6.44,9.25A29,29,0,0,1,672.28,213.71Zm-6.53.15q0-10.92-3.87-17.09T653,188.51a22.89,22.89,0,0,0-16.68-1,20.42,20.42,0,0,0-7.22,4.14,22.06,22.06,0,0,0-5.78,8.47A35.26,35.26,0,0,0,621,213.63a36.59,36.59,0,0,0,1.87,12.31,22.76,22.76,0,0,0,5.17,8.58,19.69,19.69,0,0,0,7.24,4.79,23.32,23.32,0,0,0,16,.12,20,20,0,0,0,7.17-4.42,22.34,22.34,0,0,0,5.27-8.32A35.82,35.82,0,0,0,665.75,213.86Z" transform="translate(0 -27.5)"/><path class="cls-7" d="M679.15,240.41h.75a4.78,4.78,0,0,0,3.54-1.58,6.07,6.07,0,0,0,1.54-4.44v-41.3c0-2.27-.57-3.86-1.72-4.75a6.89,6.89,0,0,0-4.11-1.41v-.63h17.5v.63a7.22,7.22,0,0,0-4.09,1.37q-1.78,1.3-1.78,4.79V233c0,2.38.59,4,1.78,4.94s3.13,1.37,5.83,1.37h4.72a13.34,13.34,0,0,0,4.92-.74,6.42,6.42,0,0,0,2.92-2.26,22.64,22.64,0,0,0,2.19-4.31h.63l-2.08,9H679.15Z" transform="translate(0 -27.5)"/><path class="cls-7" d="M734.53,186.3v.63a6.47,6.47,0,0,0-4.16,1.37q-1.71,1.38-1.71,4.57v41.52a5.48,5.48,0,0,0,1.82,4.59,6.4,6.4,0,0,0,4,1.43V241H717.18v-.59a6.33,6.33,0,0,0,4.11-1.39q1.73-1.4,1.73-4.63V192.87q0-3.42-1.73-4.68a6.78,6.78,0,0,0-4.11-1.26v-.63Z" transform="translate(0 -27.5)"/><path class="cls-7" d="M731.76,265.62h-.59q-.4-5.34-3.12-6.92a13.13,13.13,0,0,0-6.68-1.58H710.48v45.94q0,5.83,5.95,6v.59H699v-.59a6.79,6.79,0,0,0,4.14-1.43c1.12-.9,1.69-2.43,1.69-4.59V257.12H694a13,13,0,0,0-6.67,1.58c-1.8,1.05-2.84,3.36-3.14,6.92h-.59V252.25h.59a8.69,8.69,0,0,0,1,1.38,3.77,3.77,0,0,0,1.15.76,6.19,6.19,0,0,0,1.65.45,18.1,18.1,0,0,0,2.25.13h35.43a6.4,6.4,0,0,0,5.5-2.72h.59Z" transform="translate(0 -27.5)"/><path class="cls-7" d="M735.74,255.6V255h32.61v8.61h-.52q0-6.9-9.21-6.91h-11.4v24.85h10a13.89,13.89,0,0,0,5.31-1c1.56-.65,2.46-2.12,2.68-4.42h.56v12.4h-.56a6.81,6.81,0,0,0-1.26-3.25,4.93,4.93,0,0,0-1.84-1.5,4.34,4.34,0,0,0-1.62-.37,16.73,16.73,0,0,0-2.78-.23H747.22v19.43a8.06,8.06,0,0,0,.83,3.79c.56,1.06,1.85,1.59,3.88,1.59h8.14a11.76,11.76,0,0,0,4.82-.85,7.2,7.2,0,0,0,3-2.38,13.91,13.91,0,0,0,1.84-3.68h.52l-1.89,8.58H735.74v-.59h.74a5.28,5.28,0,0,0,3.42-1.41q1.67-1.41,1.67-4.61V261.84a8.31,8.31,0,0,0-1.13-4.39,4.28,4.28,0,0,0-4-1.85Zm25.63-17.72L750.71,250h-1.53l7.69-12.15Z" transform="translate(0 -27.5)"/><path class="cls-7" d="M824,267.22h-.63a11.69,11.69,0,0,0-3.77-6.79,19,19,0,0,0-7-4.07,24.13,24.13,0,0,0-7.43-1.28,20.29,20.29,0,0,0-8.86,2,21.22,21.22,0,0,0-7.15,5.61,26.6,26.6,0,0,0-4.68,8.69,35.11,35.11,0,0,0-1.67,11,33.94,33.94,0,0,0,1.62,10.67,25,25,0,0,0,4.71,8.55,20.66,20.66,0,0,0,7.19,5.47,21.59,21.59,0,0,0,9.06,1.86,28.52,28.52,0,0,0,9.14-1.69,23.58,23.58,0,0,0,9-5.63v2.12a43.75,43.75,0,0,1-9,5.61,25.67,25.67,0,0,1-10.23,1.78,28.67,28.67,0,0,1-11.79-2.36,26.61,26.61,0,0,1-9-6.37,27.71,27.71,0,0,1-5.57-9,29.63,29.63,0,0,1,2-25.16,29.51,29.51,0,0,1,10.66-10.85,28.1,28.1,0,0,1,14.6-4,40.53,40.53,0,0,1,10.36,1.45l3.86,1.07a10,10,0,0,0,1.9.23,3.1,3.1,0,0,0,1.93-.43,2.91,2.91,0,0,0,.74-1.54h.6Z" transform="translate(0 -27.5)"/><path class="cls-7" d="M885.93,255v.63a11.7,11.7,0,0,0-3.28.8,3.74,3.74,0,0,0-1.88,2.11,12.26,12.26,0,0,0-.67,4.55v48h-.37l-42-46.87v33.65a43,43,0,0,0,.33,6.24,7.09,7.09,0,0,0,1,2.93q1.37,1.94,4.79,2.08v.59H830.11v-.59a6.93,6.93,0,0,0,3.59-1,5.12,5.12,0,0,0,1.82-3.2,33.42,33.42,0,0,0,.54-7V262.21l-1.82-2a15.18,15.18,0,0,0-3.87-3.48,12.78,12.78,0,0,0-3.6-1.09V255h10.29l41.37,46.35V266a41.31,41.31,0,0,0-.31-5.95,5.12,5.12,0,0,0-1.67-3.15,6.72,6.72,0,0,0-4.26-1.3V255Z" transform="translate(0 -27.5)"/><path class="cls-7" d="M908.55,255v.63a6.47,6.47,0,0,0-4.16,1.37c-1.14.92-1.7,2.44-1.7,4.57v41.52c0,2.11.6,3.64,1.82,4.59a6.4,6.4,0,0,0,4,1.43v.59H891.21v-.59a6.32,6.32,0,0,0,4.1-1.39q1.73-1.4,1.73-4.63V261.54q0-3.42-1.73-4.68a6.77,6.77,0,0,0-4.1-1.26V255Z" transform="translate(0 -27.5)"/><path class="cls-7" d="M963.45,267.22h-.63a11.69,11.69,0,0,0-3.77-6.79,19,19,0,0,0-7-4.07,24.13,24.13,0,0,0-7.43-1.28,20.29,20.29,0,0,0-8.86,2,21.22,21.22,0,0,0-7.15,5.61,26.6,26.6,0,0,0-4.68,8.69,35.11,35.11,0,0,0-1.67,11,33.94,33.94,0,0,0,1.62,10.67,25,25,0,0,0,4.71,8.55,20.66,20.66,0,0,0,7.19,5.47,21.59,21.59,0,0,0,9.06,1.86,28.52,28.52,0,0,0,9.14-1.69,23.58,23.58,0,0,0,9-5.63v2.12a43.75,43.75,0,0,1-9,5.61,25.67,25.67,0,0,1-10.23,1.78,28.67,28.67,0,0,1-11.79-2.36,26.61,26.61,0,0,1-9-6.37,27.71,27.71,0,0,1-5.57-9,29.63,29.63,0,0,1,2-25.16A29.51,29.51,0,0,1,930,257.36a28.1,28.1,0,0,1,14.6-4,40.53,40.53,0,0,1,10.36,1.45l3.86,1.07a10,10,0,0,0,1.9.23,3.1,3.1,0,0,0,1.93-.43,2.91,2.91,0,0,0,.74-1.54h.6Z" transform="translate(0 -27.5)"/><path class="cls-7" d="M1027.81,282.38a28.11,28.11,0,0,1-3.81,14.29,28.64,28.64,0,0,1-10.38,10.53,27.81,27.81,0,0,1-14.56,3.92,29,29,0,0,1-26.79-40.28,28,28,0,0,1,6.39-9.23,29.65,29.65,0,0,1,9.36-6.09,29,29,0,0,1,31,5.87,28.24,28.24,0,0,1,6.44,9.25A29,29,0,0,1,1027.81,282.38Zm-6.54.14q0-10.92-3.86-17.08t-8.91-8.26a24.86,24.86,0,0,0-9.51-2.1,24.41,24.41,0,0,0-7.17,1.13,20.42,20.42,0,0,0-7.22,4.14,22.06,22.06,0,0,0-5.78,8.47,35.26,35.26,0,0,0-2.26,13.48,36.59,36.59,0,0,0,1.87,12.31,22.76,22.76,0,0,0,5.17,8.58,19.69,19.69,0,0,0,7.24,4.79,23.43,23.43,0,0,0,8.22,1.47,23.69,23.69,0,0,0,7.75-1.35,20,20,0,0,0,7.17-4.42,22.34,22.34,0,0,0,5.27-8.32A35.9,35.9,0,0,0,1021.27,282.52Z" transform="translate(0 -27.5)"/><path class="cls-7" d="M604.8,330h-.4a7.6,7.6,0,0,0-4.2-5,16.61,16.61,0,0,0-7.8-1.78,20.94,20.94,0,0,0-4.89.64,15.46,15.46,0,0,0-5.09,2.31,12.76,12.76,0,0,0-4.11,4.86,17.43,17.43,0,0,0-1.64,8q0,7.68,4,12.29t12.76,4.6a21.7,21.7,0,0,0,5.1-.43,3.36,3.36,0,0,0,2.09-1.16,3.69,3.69,0,0,0,.46-2v-6c0-1.43-.34-2.37-1-2.83a6.81,6.81,0,0,0-3.08-.92v-.38h11.86v.38a6.66,6.66,0,0,0-2.52.64,2.41,2.41,0,0,0-1.19,1.24,5.53,5.53,0,0,0-.3,2v9.16a48.08,48.08,0,0,1-11.24,1.31,40.16,40.16,0,0,1-5.92-.44,21.32,21.32,0,0,1-6.09-2A16.32,16.32,0,0,1,576,349.9a16.16,16.16,0,0,1-2.27-16.73,17.61,17.61,0,0,1,4-5.64A18.66,18.66,0,0,1,584,323.6a22.86,22.86,0,0,1,8.29-1.44,27.75,27.75,0,0,1,3.44.21c1.13.14,2.8.43,5,.86a10.78,10.78,0,0,0,1.88.27,1.87,1.87,0,0,0,1.78-1.1h.4Z" transform="translate(0 -27.5)"/><path class="cls-7" d="M656.27,356h-7.65v-5.45l-.12-.09a10,10,0,0,1-4.75,4.87,14.79,14.79,0,0,1-6.59,1.54,14.46,14.46,0,0,1-7-1.67,11.57,11.57,0,0,1-4.57-4.13,9.89,9.89,0,0,1-1.31-3.63,27.77,27.77,0,0,1-.27-3.93V327.16a4.43,4.43,0,0,0-.66-2.48c-.44-.67-1.48-1.07-3.13-1.18v-.38h11.46v.38c-1.68.17-2.75.61-3.21,1.31a4.13,4.13,0,0,0-.7,2.35v16.11q0,4.91,1.12,7.26a8.87,8.87,0,0,0,3.56,3.91,10.5,10.5,0,0,0,5.4,1.4,13.49,13.49,0,0,0,3-.4,10.68,10.68,0,0,0,3.24-1.34q4.53-2.79,4.53-9v-18a4.28,4.28,0,0,0-.69-2.41c-.47-.7-1.56-1.12-3.27-1.25v-.38h11.66v.38c-1.68.07-2.76.49-3.24,1.27a4.41,4.41,0,0,0-.72,2.34v24.94a3.75,3.75,0,0,0,.48,2,2.62,2.62,0,0,0,1.34,1.06,12,12,0,0,0,2.09.52Z" transform="translate(0 -27.5)"/><path class="cls-7" d="M685.7,322.71l10.92,28.2a13.62,13.62,0,0,0,1.64,3.17,3.62,3.62,0,0,0,1.47,1.24,7.08,7.08,0,0,0,1.8.35V356H689.62v-.35a9.74,9.74,0,0,0,2.82-.32c.66-.21,1-.77,1-1.7a6.39,6.39,0,0,0-.47-2,.6.6,0,0,1-.1-.27l-3.24-8.73H677l-2.9,8.09a8.44,8.44,0,0,0-.59,2.65,2,2,0,0,0,.77,1.85,4.3,4.3,0,0,0,2.17.46V356h-8.56v-.35a4.53,4.53,0,0,0,2.93-1.27,8.9,8.9,0,0,0,1.92-3.36L683,322.71Zm-8.29,18.72H689l-5.94-15.61H683Z" transform="translate(0 -27.5)"/><path class="cls-7" d="M713.26,323.5v-.38h14a30.58,30.58,0,0,1,5.43.45,26.11,26.11,0,0,1,4.46,1.22,19.59,19.59,0,0,1,3.4,1.67A15.1,15.1,0,0,1,743,328.3a16.66,16.66,0,0,1,2.94,3.47,15.25,15.25,0,0,1,1.82,4,15.58,15.58,0,0,1,.61,4.37,15.39,15.39,0,0,1-.59,4.29,14.64,14.64,0,0,1-1.71,3.77,15.88,15.88,0,0,1-2.66,3.14,19.45,19.45,0,0,1-3.61,2.54,17.8,17.8,0,0,1-4,1.52,25.9,25.9,0,0,1-6.17.58H713.26v-.35h.49a2.93,2.93,0,0,0,2.55-1.17,4.1,4.1,0,0,0,.84-2.45V327.2a4.47,4.47,0,0,0-.45-2.1,2.84,2.84,0,0,0-1.23-1.22,3.71,3.71,0,0,0-1.71-.38Zm7.65,1.18v26.07a4.7,4.7,0,0,0,.68,2.83,3.28,3.28,0,0,0,2.12,1.17,24.38,24.38,0,0,0,4.2.27,27.09,27.09,0,0,0,6.69-.71,12,12,0,0,0,5.27-3.14,13.29,13.29,0,0,0,3-4.42,15.76,15.76,0,0,0,1.14-6.32,19,19,0,0,0-.91-5.8,14.93,14.93,0,0,0-2.8-5.1,14.31,14.31,0,0,0-5.41-4,20,20,0,0,0-8-1.43A42.51,42.51,0,0,0,720.91,324.68Z" transform="translate(0 -27.5)"/><path class="cls-7" d="M775.74,322.71l10.92,28.2a13.62,13.62,0,0,0,1.64,3.17,3.62,3.62,0,0,0,1.47,1.24,7.08,7.08,0,0,0,1.8.35V356H779.66v-.35a9.74,9.74,0,0,0,2.82-.32c.66-.21,1-.77,1-1.7a6.39,6.39,0,0,0-.47-2,.6.6,0,0,1-.1-.27l-3.24-8.73H767l-2.9,8.09a8.44,8.44,0,0,0-.59,2.65,2,2,0,0,0,.77,1.85,4.3,4.3,0,0,0,2.17.46V356h-8.56v-.35a4.53,4.53,0,0,0,2.93-1.27,8.9,8.9,0,0,0,1.92-3.36l10.3-28.33Zm-8.29,18.72h11.61l-5.94-15.61H773Z" transform="translate(0 -27.5)"/><path class="cls-7" d="M803.3,355.67h.49a3.42,3.42,0,0,0,2.37-.95,3.49,3.49,0,0,0,1-2.67V327.2a3.25,3.25,0,0,0-1.15-2.86,4.93,4.93,0,0,0-2.73-.84v-.38H815v.38a5.12,5.12,0,0,0-2.72.82,3.17,3.17,0,0,0-1.19,2.88v24a3.35,3.35,0,0,0,1.19,3,7,7,0,0,0,3.88.83h3.15a9.77,9.77,0,0,0,3.28-.45,4.3,4.3,0,0,0,1.94-1.36,12.33,12.33,0,0,0,1.46-2.59h.42L825,356H803.3Z" transform="translate(0 -27.5)"/><path class="cls-7" d="M854.44,322.71l10.92,28.2a13.62,13.62,0,0,0,1.64,3.17,3.62,3.62,0,0,0,1.47,1.24,7.08,7.08,0,0,0,1.8.35V356H858.36v-.35a9.74,9.74,0,0,0,2.82-.32c.66-.21,1-.77,1-1.7a6.39,6.39,0,0,0-.47-2,.6.6,0,0,1-.1-.27l-3.24-8.73H845.73l-2.9,8.09a8.44,8.44,0,0,0-.59,2.65,2,2,0,0,0,.77,1.85,4.3,4.3,0,0,0,2.17.46V356h-8.56v-.35a4.53,4.53,0,0,0,2.93-1.27,8.9,8.9,0,0,0,1.92-3.36l10.3-28.33Zm-8.29,18.72h11.61l-5.94-15.61h-.1Z" transform="translate(0 -27.5)"/><path class="cls-7" d="M888.58,353.27V327.16q0-3.56-3.91-3.66v-.38h11.51v.38a4.51,4.51,0,0,0-2.73.89,3.27,3.27,0,0,0-1.1,2.77v27a9.94,9.94,0,0,1-.68,3.86,6.81,6.81,0,0,1-1.8,2.55,7,7,0,0,1-2.41,1.34,8.85,8.85,0,0,1-2.64.4,7.45,7.45,0,0,1-4.62-1.46,16.35,16.35,0,0,1-1.65-1.47l.25-.24a7.51,7.51,0,0,0,4.56,1.52q3.39,0,4.31-2.13A13.25,13.25,0,0,0,888.58,353.27Z" transform="translate(0 -27.5)"/><path class="cls-7" d="M924.18,322.71l10.92,28.2a13.25,13.25,0,0,0,1.64,3.17,3.62,3.62,0,0,0,1.47,1.24,7.08,7.08,0,0,0,1.79.35V356H928.09v-.35a9.76,9.76,0,0,0,2.83-.32c.66-.21,1-.77,1-1.7a6.39,6.39,0,0,0-.47-2,.6.6,0,0,1-.1-.27l-3.25-8.73H915.47l-2.9,8.09a8.17,8.17,0,0,0-.59,2.65,2,2,0,0,0,.76,1.85,4.34,4.34,0,0,0,2.18.46V356h-8.57v-.35a4.56,4.56,0,0,0,2.94-1.27,9.17,9.17,0,0,0,1.92-3.36l10.3-28.33Zm-8.29,18.72H927.5l-5.94-15.61h-.1Z" transform="translate(0 -27.5)"/><path class="cls-7" d="M952.08,323.59h-.5v-.47h12.63a14.1,14.1,0,0,1,5.17.84,8.81,8.81,0,0,1,3.29,2.16,8.21,8.21,0,0,1,1.68,2.76,8.6,8.6,0,0,1,.51,2.86,7.44,7.44,0,0,1-3.38,6.25,10.47,10.47,0,0,1-4.3,1.61v.09a14.62,14.62,0,0,1,6.05,5.68l3.29,5a16.12,16.12,0,0,0,3.58,4.27,5.71,5.71,0,0,0,2.66,1V356h-6.64l-.79-.95-.79-1c-.17-.22-.41-.56-.73-1s-.52-.71-.58-.77l-4.36-6.5a16.7,16.7,0,0,0-2.69-3.22,10.37,10.37,0,0,0-2.56-1.78,8,8,0,0,0-2.14-.67,16.26,16.26,0,0,0-2.24-.14v12.05q0,3.49,4,3.62V356H951.58v-.35a6.31,6.31,0,0,0,1.94-.37,3.09,3.09,0,0,0,1.4-1.12,3.66,3.66,0,0,0,.55-2.13V327.16a3.26,3.26,0,0,0-1.06-2.77A3.76,3.76,0,0,0,952.08,323.59Zm7.16,15.54h2.08a14.37,14.37,0,0,0,5.36-.85,6,6,0,0,0,3-2.42,7.35,7.35,0,0,0,.94-3.85,8.77,8.77,0,0,0-.84-3.72,7.08,7.08,0,0,0-2.86-3.06,10.31,10.31,0,0,0-5.44-1.24,10.2,10.2,0,0,0-2.27.2Z" transform="translate(0 -27.5)"/><path class="cls-7" d="M1010.78,322.71l10.92,28.2a13.67,13.67,0,0,0,1.63,3.17,3.7,3.7,0,0,0,1.48,1.24,7.08,7.08,0,0,0,1.79.35V356h-11.91v-.35a9.81,9.81,0,0,0,2.83-.32c.66-.21,1-.77,1-1.7a6.39,6.39,0,0,0-.47-2,.6.6,0,0,1-.1-.27l-3.25-8.73h-12.62l-2.9,8.09a8.23,8.23,0,0,0-.6,2.65,2,2,0,0,0,.77,1.85,4.34,4.34,0,0,0,2.18.46V356H993v-.35a4.58,4.58,0,0,0,2.94-1.27,9.17,9.17,0,0,0,1.92-3.36l10.3-28.33Zm-8.29,18.72h11.61l-5.94-15.61h-.1Z" transform="translate(0 -27.5)"/><text class="cls-8" transform="translate(482.34 569.22)">Fracaso o decepción</text></svg>